<svg width="154" height="43" viewBox="0 0 154 43" fill="none" xmlns="http://www.w3.org/2000/svg">
<rect width="42.4828" height="42.4828" rx="2.65517" fill="#0DDA94"/>
<g clip-path="url(#clip0)">
<path d="M2.65515 2.65515H39.8276V39.8276H2.65515V2.65515Z" fill="#0DDA93"/>
<path d="M2.65515 2.65515H13.0634V4.14205H2.65515V2.65515ZM17.5241 2.65515H19.011V4.14205H17.5241V2.65515ZM20.4979 2.65515H21.9848V4.14205H20.4979V2.65515ZM23.4717 2.65515H24.9586V4.14205H23.4717V2.65515ZM26.4455 2.65515H27.9324V4.14205H26.4455V2.65515ZM29.4193 2.65515H39.8276V4.14205H29.4193V2.65515ZM2.65515 4.14205H4.14205V5.62894H2.65515V4.14205ZM11.5765 4.14205H13.0634V5.62894H11.5765V4.14205ZM14.5503 4.14205H16.0372V5.62894H14.5503V4.14205ZM17.5241 4.14205H19.011V5.62894H17.5241V4.14205ZM21.9848 4.14205H26.4455V5.62894H21.9848V4.14205ZM29.4193 4.14205H30.9062V5.62894H29.4193V4.14205ZM38.3407 4.14205H39.8276V5.62894H38.3407V4.14205ZM2.65515 5.62894H4.14205V7.11584H2.65515V5.62894ZM5.62894 5.62894H10.0896V7.11584H5.62894V5.62894ZM11.5765 5.62894H13.0634V7.11584H11.5765V5.62894ZM20.4979 5.62894H21.9848V7.11584H20.4979V5.62894ZM26.4455 5.62894H27.9324V7.11584H26.4455V5.62894ZM29.4193 5.62894H30.9062V7.11584H29.4193V5.62894ZM32.3931 5.62894H36.8538V7.11584H32.3931V5.62894ZM38.3407 5.62894H39.8276V7.11584H38.3407V5.62894ZM2.65515 7.11584H4.14205V8.60274H2.65515V7.11584ZM5.62894 7.11584H10.0896V8.60274H5.62894V7.11584ZM11.5765 7.11584H13.0634V8.60274H11.5765V7.11584ZM14.5503 7.11584H19.011V8.60274H14.5503V7.11584ZM20.4979 7.11584H24.9586V8.60274H20.4979V7.11584ZM29.4193 7.11584H30.9062V8.60274H29.4193V7.11584ZM32.3931 7.11584H36.8538V8.60274H32.3931V7.11584ZM38.3407 7.11584H39.8276V8.60274H38.3407V7.11584ZM2.65515 8.60274H4.14205V10.0896H2.65515V8.60274ZM5.62894 8.60274H10.0896V10.0896H5.62894V8.60274ZM11.5765 8.60274H13.0634V10.0896H11.5765V8.60274ZM16.0372 8.60274H17.5241V10.0896H16.0372V8.60274ZM29.4193 8.60274H30.9062V10.0896H29.4193V8.60274ZM32.3931 8.60274H36.8538V10.0896H32.3931V8.60274ZM38.3407 8.60274H39.8276V10.0896H38.3407V8.60274ZM2.65515 10.0896H4.14205V11.5765H2.65515V10.0896ZM11.5765 10.0896H13.0634V11.5765H11.5765V10.0896ZM14.5503 10.0896H17.5241V11.5765H14.5503V10.0896ZM19.011 10.0896H21.9848V11.5765H19.011V10.0896ZM23.4717 10.0896H27.9324V11.5765H23.4717V10.0896ZM29.4193 10.0896H30.9062V11.5765H29.4193V10.0896ZM38.3407 10.0896H39.8276V11.5765H38.3407V10.0896ZM2.65515 11.5765H13.0634V13.0634H2.65515V11.5765ZM14.5503 11.5765H16.0372V13.0634H14.5503V11.5765ZM17.5241 11.5765H19.011V13.0634H17.5241V11.5765ZM20.4979 11.5765H21.9848V13.0634H20.4979V11.5765ZM23.4717 11.5765H24.9586V13.0634H23.4717V11.5765ZM26.4455 11.5765H27.9324V13.0634H26.4455V11.5765ZM29.4193 11.5765H39.8276V13.0634H29.4193V11.5765ZM16.0372 13.0634H20.4979V14.5503H16.0372V13.0634ZM23.4717 13.0634H24.9586V14.5503H23.4717V13.0634ZM26.4455 13.0634H27.9324V14.5503H26.4455V13.0634ZM2.65515 14.5503H10.0896V16.0372H2.65515V14.5503ZM11.5765 14.5503H17.5241V16.0372H11.5765V14.5503ZM19.011 14.5503H26.4455V16.0372H19.011V14.5503ZM27.9324 14.5503H29.4193V16.0372H27.9324V14.5503ZM30.9062 14.5503H32.3931V16.0372H30.9062V14.5503ZM33.88 14.5503H35.3669V16.0372H33.88V14.5503ZM36.8538 14.5503H38.3407V16.0372H36.8538V14.5503ZM5.62894 16.0372H8.60274V17.5241H5.62894V16.0372ZM17.5241 16.0372H19.011V17.5241H17.5241V16.0372ZM20.4979 16.0372H21.9848V17.5241H20.4979V16.0372ZM23.4717 16.0372H24.9586V17.5241H23.4717V16.0372ZM26.4455 16.0372H29.4193V17.5241H26.4455V16.0372ZM30.9062 16.0372H32.3931V17.5241H30.9062V16.0372ZM36.8538 16.0372H38.3407V17.5241H36.8538V16.0372ZM5.62894 17.5241H13.0634V19.011H5.62894V17.5241ZM14.5503 17.5241H16.0372V19.011H14.5503V17.5241ZM17.5241 17.5241H19.011V19.011H17.5241V17.5241ZM20.4979 17.5241H23.4717V19.011H20.4979V17.5241ZM24.9586 17.5241H26.4455V19.011H24.9586V17.5241ZM29.4193 17.5241H32.3931V19.011H29.4193V17.5241ZM33.88 17.5241H35.3669V19.011H33.88V17.5241ZM36.8538 17.5241H39.8276V19.011H36.8538V17.5241ZM2.65515 19.011H5.62894V20.4979H2.65515V19.011ZM8.60274 19.011H10.0896V20.4979H8.60274V19.011ZM13.0634 19.011H14.5503V20.4979H13.0634V19.011ZM20.4979 19.011H21.9848V20.4979H20.4979V19.011ZM26.4455 19.011H27.9324V20.4979H26.4455V19.011ZM38.3407 19.011H39.8276V20.4979H38.3407V19.011ZM2.65515 20.4979H5.62894V21.9848H2.65515V20.4979ZM7.11584 20.4979H10.0896V21.9848H7.11584V20.4979ZM11.5765 20.4979H13.0634V21.9848H11.5765V20.4979ZM16.0372 20.4979H19.011V21.9848H16.0372V20.4979ZM21.9848 20.4979H24.9586V21.9848H21.9848V20.4979ZM27.9324 20.4979H33.88V21.9848H27.9324V20.4979ZM35.3669 20.4979H39.8276V21.9848H35.3669V20.4979ZM2.65515 21.9848H4.14205V23.4717H2.65515V21.9848ZM19.011 21.9848H20.4979V23.4717H19.011V21.9848ZM26.4455 21.9848H27.9324V23.4717H26.4455V21.9848ZM30.9062 21.9848H32.3931V23.4717H30.9062V21.9848ZM33.88 21.9848H35.3669V23.4717H33.88V21.9848ZM36.8538 21.9848H38.3407V23.4717H36.8538V21.9848ZM2.65515 23.4717H4.14205V24.9586H2.65515V23.4717ZM5.62894 23.4717H13.0634V24.9586H5.62894V23.4717ZM17.5241 23.4717H19.011V24.9586H17.5241V23.4717ZM20.4979 23.4717H23.4717V24.9586H20.4979V23.4717ZM24.9586 23.4717H27.9324V24.9586H24.9586V23.4717ZM29.4193 23.4717H35.3669V24.9586H29.4193V23.4717ZM36.8538 23.4717H39.8276V24.9586H36.8538V23.4717ZM2.65515 24.9586H4.14205V26.4455H2.65515V24.9586ZM8.60274 24.9586H11.5765V26.4455H8.60274V24.9586ZM14.5503 24.9586H16.0372V26.4455H14.5503V24.9586ZM17.5241 24.9586H19.011V26.4455H17.5241V24.9586ZM20.4979 24.9586H21.9848V26.4455H20.4979V24.9586ZM23.4717 24.9586H26.4455V26.4455H23.4717V24.9586ZM27.9324 24.9586H29.4193V26.4455H27.9324V24.9586ZM30.9062 24.9586H33.88V26.4455H30.9062V24.9586ZM38.3407 24.9586H39.8276V26.4455H38.3407V24.9586ZM2.65515 26.4455H4.14205V27.9324H2.65515V26.4455ZM10.0896 26.4455H19.011V27.9324H10.0896V26.4455ZM21.9848 26.4455H24.9586V27.9324H21.9848V26.4455ZM26.4455 26.4455H33.88V27.9324H26.4455V26.4455ZM35.3669 26.4455H36.8538V27.9324H35.3669V26.4455ZM14.5503 27.9324H16.0372V29.4193H14.5503V27.9324ZM19.011 27.9324H20.4979V29.4193H19.011V27.9324ZM24.9586 27.9324H27.9324V29.4193H24.9586V27.9324ZM32.3931 27.9324H35.3669V29.4193H32.3931V27.9324ZM2.65515 29.4193H13.0634V30.9062H2.65515V29.4193ZM14.5503 29.4193H19.011V30.9062H14.5503V29.4193ZM23.4717 29.4193H24.9586V30.9062H23.4717V29.4193ZM26.4455 29.4193H27.9324V30.9062H26.4455V29.4193ZM29.4193 29.4193H30.9062V30.9062H29.4193V29.4193ZM32.3931 29.4193H33.88V30.9062H32.3931V29.4193ZM35.3669 29.4193H39.8276V30.9062H35.3669V29.4193ZM2.65515 30.9062H4.14205V32.3931H2.65515V30.9062ZM11.5765 30.9062H13.0634V32.3931H11.5765V30.9062ZM16.0372 30.9062H17.5241V32.3931H16.0372V30.9062ZM20.4979 30.9062H21.9848V32.3931H20.4979V30.9062ZM23.4717 30.9062H24.9586V32.3931H23.4717V30.9062ZM26.4455 30.9062H27.9324V32.3931H26.4455V30.9062ZM32.3931 30.9062H35.3669V32.3931H32.3931V30.9062ZM36.8538 30.9062H38.3407V32.3931H36.8538V30.9062ZM2.65515 32.3931H4.14205V33.88H2.65515V32.3931ZM5.62894 32.3931H10.0896V33.88H5.62894V32.3931ZM11.5765 32.3931H13.0634V33.88H11.5765V32.3931ZM14.5503 32.3931H16.0372V33.88H14.5503V32.3931ZM17.5241 32.3931H19.011V33.88H17.5241V32.3931ZM20.4979 32.3931H33.88V33.88H20.4979V32.3931ZM35.3669 32.3931H36.8538V33.88H35.3669V32.3931ZM2.65515 33.88H4.14205V35.3669H2.65515V33.88ZM5.62894 33.88H10.0896V35.3669H5.62894V33.88ZM11.5765 33.88H13.0634V35.3669H11.5765V33.88ZM14.5503 33.88H17.5241V35.3669H14.5503V33.88ZM19.011 33.88H20.4979V35.3669H19.011V33.88ZM21.9848 33.88H23.4717V35.3669H21.9848V33.88ZM24.9586 33.88H26.4455V35.3669H24.9586V33.88ZM27.9324 33.88H30.9062V35.3669H27.9324V33.88ZM32.3931 33.88H39.8276V35.3669H32.3931V33.88ZM2.65515 35.3669H4.14205V36.8538H2.65515V35.3669ZM5.62894 35.3669H10.0896V36.8538H5.62894V35.3669ZM11.5765 35.3669H13.0634V36.8538H11.5765V35.3669ZM14.5503 35.3669H16.0372V36.8538H14.5503V35.3669ZM17.5241 35.3669H19.011V36.8538H17.5241V35.3669ZM20.4979 35.3669H21.9848V36.8538H20.4979V35.3669ZM23.4717 35.3669H24.9586V36.8538H23.4717V35.3669ZM33.88 35.3669H36.8538V36.8538H33.88V35.3669ZM38.3407 35.3669H39.8276V36.8538H38.3407V35.3669ZM2.65515 36.8538H4.14205V38.3407H2.65515V36.8538ZM11.5765 36.8538H13.0634V38.3407H11.5765V36.8538ZM14.5503 36.8538H20.4979V38.3407H14.5503V36.8538ZM24.9586 36.8538H29.4193V38.3407H24.9586V36.8538ZM30.9062 36.8538H35.3669V38.3407H30.9062V36.8538ZM38.3407 36.8538H39.8276V38.3407H38.3407V36.8538ZM2.65515 38.3407H13.0634V39.8276H2.65515V38.3407ZM14.5503 38.3407H17.5241V39.8276H14.5503V38.3407ZM19.011 38.3407H23.4717V39.8276H19.011V38.3407ZM27.9324 38.3407H29.4193V39.8276H27.9324V38.3407ZM30.9062 38.3407H39.8276V39.8276H30.9062V38.3407Z" fill="#025F40" fill-opacity="0.25"/>
</g>
<path d="M10.4225 30.6519C8.66654 30.3309 7.30709 29.5001 6.34415 28.1595C5.3812 26.819 4.89973 25.0064 4.89973 22.7218V18.3035C4.89973 15.7357 5.54169 13.7437 6.82562 12.3276C8.12842 10.9115 9.92214 10.2035 12.2068 10.2035C14.4914 10.2035 16.2757 10.9115 17.5596 12.3276C18.8624 13.7437 19.5138 15.7357 19.5138 18.3035V22.7218C19.5138 25.0064 19.0229 26.819 18.0411 28.1595C17.0781 29.5001 15.7281 30.3309 13.991 30.6519V31.1617C13.991 31.6903 14.2271 31.9547 14.6991 31.9547H16.455V35.3533H13.1131C12.3389 35.3533 11.697 35.089 11.1872 34.5603C10.6774 34.0505 10.4225 33.4085 10.4225 32.6344V30.6519ZM12.2068 27.4232C12.8865 27.4232 13.4529 27.3099 13.9061 27.0833C14.3592 26.8567 14.7274 26.5452 15.0106 26.1487C15.2938 25.7522 15.4921 25.2802 15.6054 24.7326C15.7187 24.1662 15.7753 23.5525 15.7753 22.8917V18.1336C15.7753 17.5105 15.7092 16.9252 15.5771 16.3777C15.4449 15.8301 15.2372 15.3486 14.954 14.9332C14.6708 14.5179 14.3026 14.1969 13.8494 13.9703C13.3963 13.7248 12.8487 13.6021 12.2068 13.6021C11.5648 13.6021 11.0172 13.7248 10.5641 13.9703C10.111 14.1969 9.74277 14.5179 9.45955 14.9332C9.17633 15.3486 8.96864 15.8301 8.83647 16.3777C8.7043 16.9252 8.63821 17.5105 8.63821 18.1336V22.8917C8.63821 23.5525 8.69486 24.1662 8.80815 24.7326C8.92143 25.2802 9.11969 25.7522 9.4029 26.1487C9.68612 26.5452 10.0543 26.8567 10.5075 27.0833C10.9606 27.3099 11.527 27.4232 12.2068 27.4232ZM36.2606 30.4253H32.5222V24.4777C32.5222 24.0246 32.3994 23.6564 32.154 23.3732C31.9274 23.0899 31.5403 22.9483 30.9928 22.9483H26.6879V30.4253H22.9494V10.6H30.5396C31.5592 10.6 32.4561 10.7416 33.2302 11.0248C34.0043 11.308 34.6463 11.7046 35.1561 12.2143C35.6848 12.7053 36.0813 13.2811 36.3456 13.942C36.6288 14.6028 36.7704 15.3109 36.7704 16.0661V16.7458C36.7704 17.5577 36.5533 18.3224 36.119 19.0399C35.6848 19.7385 35.0145 20.2766 34.1082 20.6543V21.1641C34.769 21.2396 35.2883 21.4945 35.6659 21.9287C36.0624 22.363 36.2606 22.9106 36.2606 23.5714V30.4253ZM26.6879 19.3798H30.2564C31.1627 19.3798 31.8519 19.1721 32.3239 18.7567C32.7959 18.3224 33.0319 17.7182 33.0319 16.9441V16.6042C33.0319 15.9434 32.7959 15.377 32.3239 14.9049C31.8519 14.414 31.1627 14.1686 30.2564 14.1686H26.6879V19.3798Z" fill="#08090C"/>
<path d="M58.2864 28.9979C59.0038 28.9979 59.5892 28.894 60.0423 28.6863C60.5143 28.4598 60.8731 28.1671 61.1185 27.8084C61.3829 27.4307 61.5623 27.0059 61.6567 26.5339C61.7511 26.043 61.7983 25.5426 61.7983 25.0328V24.523H65.5368V25.0328C65.5368 27.393 64.9137 29.215 63.6675 30.4989C62.4402 31.764 60.6465 32.3965 58.2864 32.3965C56.0206 32.3965 54.2269 31.7073 52.9052 30.329C51.5835 28.9507 50.9227 26.9398 50.9227 24.2965V19.8783C50.9227 18.6132 51.0926 17.4803 51.4325 16.4796C51.7723 15.46 52.2632 14.6104 52.9052 13.9307C53.5472 13.2321 54.3213 12.7034 55.2276 12.3446C56.1339 11.967 57.1535 11.7782 58.2864 11.7782C59.457 11.7782 60.4955 11.9481 61.4018 12.288C62.3081 12.6279 63.0633 13.1188 63.6675 13.7607C64.2906 14.4027 64.7532 15.1768 65.0553 16.0831C65.3763 16.9894 65.5368 18.009 65.5368 19.1419V19.6517H61.7983V19.1419C61.7983 18.6699 61.7416 18.1978 61.6283 17.7258C61.515 17.2538 61.3262 16.8289 61.0619 16.4513C60.7976 16.0737 60.4388 15.7716 59.9857 15.545C59.5325 15.2996 58.9661 15.1768 58.2864 15.1768C57.6633 15.1768 57.1252 15.2996 56.672 15.545C56.2189 15.7716 55.8412 16.0926 55.5391 16.508C55.237 16.9045 55.0105 17.3765 54.8594 17.924C54.7272 18.4527 54.6612 19.0097 54.6612 19.595V24.5797C54.6612 25.2216 54.7272 25.8164 54.8594 26.364C54.9916 26.8926 55.1993 27.3552 55.4825 27.7517C55.7657 28.1482 56.1339 28.4598 56.587 28.6863C57.0591 28.894 57.6255 28.9979 58.2864 28.9979ZM82.8783 25.1461C82.8783 26.3168 82.6801 27.3552 82.2836 28.2615C81.8871 29.1489 81.349 29.9042 80.6692 30.5273C79.9895 31.1315 79.2059 31.5941 78.3185 31.915C77.45 32.236 76.5343 32.3965 75.5713 32.3965C74.6084 32.3965 73.6832 32.236 72.7958 31.915C71.9272 31.5941 71.1531 31.1315 70.4734 30.5273C69.7937 29.9042 69.2555 29.1489 68.859 28.2615C68.4625 27.3552 68.2643 26.3168 68.2643 25.1461V24.8063C68.2643 23.6545 68.4625 22.6349 68.859 21.7475C69.2555 20.8412 69.7937 20.0765 70.4734 19.4534C71.1531 18.8303 71.9272 18.3583 72.7958 18.0373C73.6832 17.7164 74.6084 17.5559 75.5713 17.5559C76.5343 17.5559 77.45 17.7164 78.3185 18.0373C79.2059 18.3583 79.9895 18.8303 80.6692 19.4534C81.349 20.0765 81.8871 20.8412 82.2836 21.7475C82.6801 22.6349 82.8783 23.6545 82.8783 24.8063V25.1461ZM75.5713 28.9979C76.0811 28.9979 76.5626 28.9129 77.0157 28.743C77.4689 28.5731 77.8654 28.3276 78.2052 28.0066C78.5451 27.6856 78.8094 27.2986 78.9983 26.8454C79.2059 26.3734 79.3098 25.8447 79.3098 25.2594V24.693C79.3098 24.1076 79.2059 23.5884 78.9983 23.1353C78.8094 22.6632 78.5451 22.2667 78.2052 21.9457C77.8654 21.6248 77.4689 21.3793 77.0157 21.2094C76.5626 21.0394 76.0811 20.9545 75.5713 20.9545C75.0615 20.9545 74.58 21.0394 74.1269 21.2094C73.6737 21.3793 73.2772 21.6248 72.9374 21.9457C72.5975 22.2667 72.3237 22.6632 72.116 23.1353C71.9272 23.5884 71.8328 24.1076 71.8328 24.693V25.2594C71.8328 25.8447 71.9272 26.3734 72.116 26.8454C72.3237 27.2986 72.5975 27.6856 72.9374 28.0066C73.2772 28.3276 73.6737 28.5731 74.1269 28.743C74.58 28.9129 75.0615 28.9979 75.5713 28.9979ZM96.5381 29.9608H96.0283C95.8773 30.2818 95.6884 30.5933 95.4619 30.8954C95.2542 31.1787 94.971 31.4336 94.6122 31.6601C94.2724 31.8867 93.857 32.0661 93.3661 32.1983C92.894 32.3304 92.3181 32.3965 91.6384 32.3965C90.7699 32.3965 89.958 32.2455 89.2027 31.9434C88.4664 31.6224 87.815 31.1598 87.2485 30.5556C86.701 29.9325 86.2667 29.1773 85.9457 28.2898C85.6436 27.4024 85.4926 26.3828 85.4926 25.2311V24.7213C85.4926 23.5884 85.6531 22.5783 85.9741 21.6908C86.3139 20.8034 86.7671 20.0576 87.3335 19.4534C87.9188 18.8303 88.5891 18.3583 89.3444 18.0373C90.1185 17.7164 90.9304 17.5559 91.78 17.5559C92.9129 17.5559 93.8098 17.773 94.4706 18.2073C95.1314 18.6226 95.6507 19.2174 96.0283 19.9915H96.5381V12.1747H100.107V32H96.5381V29.9608ZM92.7996 28.9979C93.9136 28.9979 94.8105 28.6486 95.4902 27.95C96.1888 27.2325 96.5381 26.2979 96.5381 25.1461V24.8063C96.5381 23.6545 96.1888 22.7293 95.4902 22.0307C94.8105 21.3132 93.9136 20.9545 92.7996 20.9545C91.6856 20.9545 90.7793 21.3038 90.0807 22.0024C89.401 22.6821 89.0611 23.6167 89.0611 24.8063V25.1461C89.0611 26.3356 89.401 27.2797 90.0807 27.9783C90.7793 28.658 91.6856 28.9979 92.7996 28.9979ZM104.052 28.6014H108.81V21.351H104.392V17.9524H112.379V28.6014H116.457V32H104.052V28.6014ZM113.257 13.7891C113.257 14.1667 113.181 14.5254 113.03 14.8653C112.898 15.1863 112.709 15.4695 112.464 15.7149C112.218 15.9415 111.925 16.1303 111.586 16.2814C111.265 16.4135 110.925 16.4796 110.566 16.4796C110.188 16.4796 109.839 16.4135 109.518 16.2814C109.197 16.1303 108.914 15.9415 108.668 15.7149C108.423 15.4695 108.225 15.1863 108.074 14.8653C107.942 14.5254 107.875 14.1667 107.875 13.7891C107.875 13.4114 107.942 13.0621 108.074 12.7411C108.225 12.4013 108.423 12.1181 108.668 11.8915C108.914 11.646 109.197 11.4572 109.518 11.3251C109.839 11.174 110.188 11.0985 110.566 11.0985C110.925 11.0985 111.265 11.174 111.586 11.3251C111.925 11.4572 112.218 11.646 112.464 11.8915C112.709 12.1181 112.898 12.4013 113.03 12.7411C113.181 13.0621 113.257 13.4114 113.257 13.7891ZM124.707 32H121.139V17.9524H124.707V20.0482H125.217C125.538 19.2552 126.057 18.6415 126.775 18.2073C127.492 17.773 128.332 17.5559 129.295 17.5559C129.975 17.5559 130.608 17.6691 131.193 17.8957C131.797 18.1034 132.326 18.4338 132.779 18.887C133.232 19.3401 133.581 19.916 133.827 20.6146C134.091 21.3132 134.223 22.144 134.223 23.1069V32H130.655V24.0132C130.655 23.0125 130.409 22.229 129.918 21.6625C129.446 21.0772 128.757 20.7846 127.851 20.7846C126.794 20.7846 126.001 21.1433 125.472 21.8608C124.962 22.5594 124.707 23.5034 124.707 24.693V32ZM148.506 29.9608H147.996C147.845 30.2818 147.657 30.5933 147.43 30.8954C147.222 31.1787 146.939 31.4336 146.58 31.6601C146.24 31.8867 145.825 32.0661 145.334 32.1983C144.862 32.3304 144.286 32.3965 143.607 32.3965C142.738 32.3965 141.926 32.2455 141.171 31.9434C140.435 31.6224 139.783 31.1598 139.217 30.5556C138.669 29.9325 138.235 29.1773 137.914 28.2898C137.612 27.4024 137.461 26.3828 137.461 25.2311V24.7213C137.461 23.5884 137.621 22.5783 137.942 21.6908C138.282 20.8034 138.735 20.0576 139.302 19.4534C139.887 18.8303 140.557 18.3583 141.312 18.0373C142.087 17.7164 142.899 17.5559 143.748 17.5559C144.881 17.5559 145.778 17.773 146.439 18.2073C147.1 18.6226 147.619 19.2174 147.996 19.9915H148.506V17.9524H152.075V35.4553C152.075 36.0972 151.867 36.6259 151.452 37.0413C151.055 37.4567 150.536 37.6644 149.894 37.6644H140.435V34.2657H147.742C148.251 34.2657 148.506 33.9825 148.506 33.4161V29.9608ZM144.768 28.9979C145.882 28.9979 146.779 28.6486 147.458 27.95C148.157 27.2325 148.506 26.2979 148.506 25.1461V24.8063C148.506 23.6545 148.157 22.7293 147.458 22.0307C146.779 21.3132 145.882 20.9545 144.768 20.9545C143.654 20.9545 142.747 21.3038 142.049 22.0024C141.369 22.6821 141.029 23.6167 141.029 24.8063V25.1461C141.029 26.3356 141.369 27.2797 142.049 27.9783C142.747 28.658 143.654 28.9979 144.768 28.9979Z" fill="#0DDA94"/>
<defs>
<clipPath id="clip0">
<rect width="37.1724" height="37.1724" fill="white" transform="translate(2.65515 2.65515)"/>
</clipPath>
</defs>
</svg>
